<svg width="198" height="197" viewBox="0 0 198 197" fill="none" xmlns="http://www.w3.org/2000/svg">
<path d="M63.0309 41.9961C71.9437 41.9961 81.4989 41.1096 93.1417 39.0947C93.6235 39.0141 94.1855 38.9335 94.6673 38.8529L97.0761 38.4499C99.5653 38.047 103.018 37.4022 105.186 37.241C105.748 37.1604 106.31 37.0798 106.872 36.9992C107.354 36.9186 107.916 36.838 108.398 36.838C111.128 36.5157 114.018 36.4351 116.829 36.4351C160.509 36.3545 196 71.9773 196 115.74C196 159.503 160.509 195.126 116.909 195.126C100.288 195.126 84.791 189.968 72.024 181.102C72.024 181.102 70.0969 177.315 70.0166 170.786C70.0166 165.064 69.7757 161.518 66.0821 160.631C61.9068 159.584 59.9797 155.715 60.3812 149.268C60.6221 145.641 58.0526 143.223 55.162 140.563C54.4393 139.919 53.797 139.274 53.0743 138.549C49.3807 134.841 49.2201 129.441 52.5122 123.236C53.4758 121.462 54.7605 117.352 56.1255 112.597C54.359 110.421 52.7531 107.52 52.1108 103.973C50.4246 94.7856 50.9063 93.4961 52.8334 90.5141C53.0743 90.1917 53.3152 89.7887 53.5561 89.3858C55.0817 86.8067 57.9723 85.4366 60.3009 86.2426C61.425 86.6455 63.9142 88.0962 63.2718 93.4155C62.79 97.4452 61.1038 105.102 59.257 111.952C60.4615 113.242 61.9068 114.451 63.5127 115.418C66.4836 117.272 69.0531 117.674 70.0969 117.352C73.389 116.304 76.4402 116.788 79.1703 117.272C80.0535 117.433 80.9368 117.513 81.82 117.594C83.2654 117.755 83.2654 117.755 84.6304 114.29C85.1121 113 85.7545 111.388 86.6378 109.373C87.6013 107.117 89.3678 105.585 91.7767 104.941C97.317 103.409 105.025 106.955 107.675 108.809C110.485 110.743 111.288 114.854 110.084 120.818C109.602 123.236 111.369 127.346 114.661 129.28C117.712 131.053 119.559 136.534 120.281 145.963C120.603 149.671 125.019 157.408 126.785 159.423C127.749 160.551 128.472 162.082 129.275 163.694C130.158 165.548 131.121 167.482 132.326 168.691C134.173 170.545 136.18 171.028 137.545 169.819C138.107 169.336 138.669 169.013 139.231 168.61C140.677 167.643 142.282 166.515 144.45 163.613C146.217 161.115 146.377 157.408 146.618 151.847C146.699 148.784 146.859 145.399 147.261 141.208C148.706 127.346 162.115 123.316 166.532 121.946C168.86 121.221 170.546 120.012 171.43 118.319C172.313 116.707 172.393 114.773 171.831 112.839C170.546 108.728 169.021 102.362 168.7 97.9288C168.459 94.4632 163.079 89.547 156.174 88.0157C152.078 87.1291 149.108 88.1768 145.253 89.3858C142.844 90.1917 140.034 91.1588 136.581 91.723C130.961 92.6901 128.632 90.4335 127.829 88.9828C126.304 86.4038 127.026 82.9382 128.472 81.0845C129.676 79.4726 130.961 78.7473 132.246 77.9413C133.45 77.216 134.494 76.5712 135.618 75.1205C138.027 71.5743 145.655 74.3952 152.48 77.2966L153.363 77.6995C154.889 78.3443 156.254 78.4249 157.137 77.9413C157.779 77.5384 158.101 76.813 158.261 75.7653C158.341 74.4758 158.743 73.5892 158.984 73.0251V72.9445C158.663 72.7833 158.101 72.5415 157.057 72.2191C152.48 70.7684 149.108 65.8521 144.852 59.7269C144.049 58.5986 143.246 57.3897 142.363 56.1808C140.998 54.2465 139.552 53.1988 138.027 52.957C135.297 52.6346 132.486 55.2942 130.399 57.1479L130.238 57.3091C126.063 61.097 113.376 61.7418 104.865 54.8913C97.4776 48.9272 80.6959 46.187 78.4476 46.2676C53.3955 60.2911 37.8182 86.8873 37.8182 115.66C37.8182 141.45 48.4975 163.13 67.5275 177.637" stroke="#CEDB56" stroke-width="3" stroke-miterlimit="10"/>
<path d="M1.00023 1C1.00023 1 19.759 41.8076 64.8582 41.8076" stroke="#CEDB56" stroke-width="3"/>
</svg>
